<?xml version="1.0" encoding="utf-8"?>
<!-- Generator: Adobe Illustrator 24.1.2, SVG Export Plug-In . SVG Version: 6.00 Build 0)  -->
<svg version="1.1" id="Layer_1" xmlns="http://www.w3.org/2000/svg" xmlns:xlink="http://www.w3.org/1999/xlink" x="0px" y="0px"
	 viewBox="0 0 576 191.66" style="enable-background:new 0 0 576 191.66;" xml:space="preserve">
<style type="text/css">
	.st0{fill:#FFFFFF;}
	.st1{fill:#D93729;}
	.st2{opacity:0.83;fill:#EB3A3D;}
	.st3{fill:#010101;}
	.st4{fill:#EB3A3D;}
</style>
<g>
	<path d="M126.21,128.71h-8.28c-1.95,0-3.53-1.58-3.53-3.53V56.31h5.09c3.71,0,6.71,3.01,6.71,6.71v6.04
		c1.96-3.66,4.08-6.52,6.38-8.56c2.3-2.04,4.74-3.59,7.34-4.64c2.6-1.05,5.25-1.58,7.95-1.58c2.43,0,4.54,0.36,6.33,1.09v12.5
		c-2.8-1.38-5.76-2.07-8.86-2.07c-4.42,0-8.72,1.99-12.89,5.96c-4.17,3.98-6.26,11.03-6.26,21.16V128.71z"/>
	<path d="M207.76,118.44v10.11c-5.74,1.45-10.13,2.18-13.17,2.18c-4.39,0-8.35-0.91-11.88-2.72c-3.53-1.82-6.21-4.45-8.05-7.91
		c-1.84-3.46-2.76-8.97-2.76-16.54V66.32h-12.26V56.31h12.26V39.19h5.24c3.63,0,6.57,2.94,6.57,6.57v10.55h20.61v10.01H183.7v33.85
		c0,6.4,0.48,10.84,1.44,13.32s2.49,4.3,4.58,5.48c2.09,1.18,4.59,1.76,7.5,1.76C199.55,120.72,203.06,119.96,207.76,118.44z"/>
	<path d="M214.5,106.1h12.81v0.62c0,5.57,1.92,9.45,5.75,11.64c3.83,2.2,8.94,3.29,15.32,3.29c5.57,0,10.25-1.67,14.03-5
		c3.78-3.34,5.67-7.72,5.67-13.15c0-4.43-1.62-8.04-4.86-10.84c-3.28-2.77-8.22-5.53-14.84-8.3l-5.12-2.13
		c-6.96-2.94-12.16-5.85-15.6-8.74c-3.44-2.89-6.01-6.08-7.7-9.57c-1.69-3.49-2.53-7.4-2.53-11.72c0-7.61,2.63-14.03,7.88-19.27
		c5.25-5.24,13.46-7.86,24.64-7.86c10.26,0,17.49,1.94,21.68,5.83c4.19,3.89,6.28,8.43,6.28,13.62v0.67H265.1v-0.68
		c0-1.63-0.64-3.26-1.92-4.88c-1.28-1.62-3.22-2.78-5.8-3.49c-2.58-0.71-5.41-1.07-8.48-1.07c-6.28,0-10.93,1.61-13.95,4.83
		c-3.02,3.22-4.53,6.88-4.53,11c0,2.77,0.72,5.37,2.15,7.81c1.44,2.44,3.41,4.46,5.93,6.07c2.52,1.61,6.74,3.74,12.69,6.41l6.03,2.7
		c9.62,4.25,16.06,8.75,19.3,13.49c3.21,4.71,4.81,9.77,4.81,15.2c0,5.09-1.31,9.99-3.93,14.71c-2.62,4.72-6.25,8.31-10.89,10.77
		c-4.64,2.46-10.83,3.68-18.56,3.68c-7.33,0-13.45-0.9-18.36-2.7c-4.91-1.8-8.65-4.75-11.22-8.87c-2.57-4.11-3.85-8.61-3.85-13.48
		V106.1z"/>
	<path d="M335.63,118.44v10.11c-5.74,1.45-10.13,2.18-13.17,2.18c-4.39,0-8.35-0.91-11.88-2.72c-3.53-1.82-6.21-4.45-8.05-7.91
		s-2.76-8.97-2.76-16.54V66.32h-12.26V56.31h12.26V39.19h5.79c3.32,0,6.01,2.69,6.01,6.01v11.11h20.62v10.01h-20.62v33.85
		c0,6.4,0.48,10.84,1.44,13.32c0.96,2.47,2.49,4.3,4.58,5.48c2.09,1.18,4.59,1.76,7.5,1.76
		C327.43,120.72,330.94,119.96,335.63,118.44z"/>
	<path d="M374.79,130.73c-9.22,0-17.09-3.22-23.63-9.65c-6.53-6.43-9.8-15.97-9.8-28.63c0-12.62,3.27-22.14,9.8-28.55
		c6.53-6.41,14.41-9.62,23.63-9.62c9.22,0,17.08,3.21,23.6,9.62c6.52,6.41,9.78,15.93,9.78,28.55c0,12.66-3.26,22.2-9.78,28.63
		C391.88,127.52,384.01,130.73,374.79,130.73z M374.79,120.72c6.35,0,11.45-2.59,15.32-7.77c3.87-5.18,5.8-12.01,5.8-20.5
		c0-8.45-1.93-15.26-5.8-20.42c-3.87-5.16-8.97-7.74-15.32-7.74c-6.35,0-11.46,2.58-15.32,7.74c-3.87,5.16-5.8,11.97-5.8,20.42
		c0,8.49,1.93,15.32,5.8,20.5S368.44,120.72,374.79,120.72z"/>
	<path d="M462.48,110.09h11.85v0.67c0,3.22-1.19,6.47-3.57,9.75c-2.38,3.29-5.5,5.81-9.37,7.57c-3.87,1.76-8.52,2.65-13.95,2.65
		c-10.43,0-18.47-3.39-24.11-10.17c-5.64-6.78-8.46-16.15-8.46-28.11c0-11.93,2.82-21.27,8.46-28.03
		c5.64-6.76,13.68-10.14,24.11-10.14c5.44,0,10.09,0.87,13.95,2.61c3.87,1.74,6.99,4.12,9.37,7.16s3.57,6.42,3.57,10.15v0.62h-11.85
		V74.2c0.13-2.63-0.99-4.94-3.37-6.92s-6.07-2.98-11.07-2.98c-5.91,0-10.86,2.23-14.87,6.68c-4,4.45-6,11.61-6,21.49
		c0,9.91,2,17.1,6,21.56c4,4.47,8.96,6.7,14.87,6.7c5,0,8.65-1,10.97-3c2.31-2,3.47-4.32,3.47-6.96V110.09z"/>
	<path d="M493.88,128.71h-8.77c-1.93,0-3.49-1.56-3.49-3.49V24.05h4.89c4.07,0,7.37,3.3,7.37,7.37V90.8l31.4-34.49h13.63
		l-30.64,33.61l31.81,38.79h-14.79l-31.4-37.91V128.71z"/>
</g>
<path class="st0" d="M68.56,88.85H46.81c-5.37,0-9.72-4.35-9.72-9.72V55.75h25.18c3.47,0,6.29,2.81,6.29,6.29V88.85z"/>
<path class="st1" d="M107.22,128.63H81.44c-3.43,0-6.21-2.78-6.21-6.21V55.95h21.31c5.9,0,10.69,4.79,10.69,10.69V128.63z"/>
<path class="st2" d="M68.56,88.85H46.81c-5.37,0-9.72-4.35-9.72-9.72V55.75h25.18c3.47,0,6.29,2.81,6.29,6.29V88.85z"/>
<path class="st1" d="M68.59,128.41H46.84c-5.37,0-9.72-4.35-9.72-9.72V95.32H62.3c3.47,0,6.29,2.81,6.29,6.29V128.41z"/>
<g>
	<path class="st3" d="M406.41,150.45h3.84v10.91c0,2.76,0.27,4.61,0.8,5.55s1.37,1.66,2.51,2.15c1.14,0.5,2.41,0.74,3.81,0.74
		c1.34,0,2.54-0.25,3.59-0.74c1.05-0.5,1.82-1.28,2.33-2.34s0.77-3.3,0.77-6.7v-17.58h3.53v18.56c0,3.44-0.39,5.85-1.18,7.24
		c-0.79,1.39-1.93,2.49-3.42,3.3s-3.37,1.21-5.64,1.21c-2.09,0-4.01-0.32-5.76-0.97c-1.75-0.65-3.04-1.65-3.9-3.01
		c-0.85-1.36-1.28-3.66-1.28-6.91V150.45z"/>
	<path class="st3" d="M436.25,171.87h-3.53v-29.42h3.81l13.42,20.91l1.23,2.32l-0.08-2.3v-20.93h3.53v29.42h-3.76l-13.46-21
		l-1.24-2.37l0.08,2.37V171.87z"/>
	<path class="st3" d="M464.06,171.87h-3.84v-29.42h3.84V171.87z"/>
	<path class="st3" d="M477.44,171.87v-26.46h-10.01v-2.96h23.67v2.96h-9.86v26.46H477.44z"/>
	<path class="st3" d="M494.49,171.87v-29.42h16.64v3.23h-12.8v9.3h11.18v2.93h-11.18v10.74h13.83v3.23H494.49z"/>
	<path class="st3" d="M516.84,171.87v-29.42h8.13c3.95,0,6.85,0.54,8.68,1.61c1.83,1.07,3.27,2.71,4.3,4.92
		c1.03,2.21,1.55,4.9,1.55,8.06c0,2.97-0.46,5.55-1.39,7.73c-0.93,2.18-2.34,3.91-4.22,5.19s-4.68,1.92-8.38,1.92H516.84z
		 M520.68,168.64h4.52c2.69,0,4.71-0.39,6.08-1.18s2.42-2.03,3.14-3.72s1.09-3.81,1.09-6.36c0-2.56-0.33-4.76-0.99-6.6
		c-0.66-1.84-1.67-3.2-3.03-4.07s-3.49-1.31-6.39-1.31h-4.42V168.64z"/>
</g>
<path d="M398.65,157.72l0-0.94l-360.37-0.31c-1.06,0-1.92,0.86-1.93,1.92l0,1.08l360.24,0.31
	C397.72,159.77,398.64,158.85,398.65,157.72z"/>
<rect x="406.4" y="146.42" class="st4" width="3.84" height="3.43"/>
<rect x="406.4" y="142.43" class="st2" width="3.84" height="3.43"/>
</svg>
