<?xml version="1.0" encoding="utf-8"?>
<!-- Generator: Adobe Illustrator 22.0.1, SVG Export Plug-In . SVG Version: 6.00 Build 0)  -->
<svg version="1.1" id="Layer_1" xmlns="http://www.w3.org/2000/svg" xmlns:xlink="http://www.w3.org/1999/xlink" x="0px" y="0px"
	 viewBox="0 0 500 500" style="enable-background:new 0 0 500 500;" xml:space="preserve">
<style type="text/css">
	.st0{fill:none;stroke:#5AA4C2;stroke-width:8;stroke-linecap:round;stroke-linejoin:round;stroke-miterlimit:10;}
</style>
<g>
	<polyline class="st0" points="94,184.4 34.1,184.3 86.8,83.7 414.8,83.7 471,185.1 167.7,184.6 	"/>
	<path class="st0" d="M143.3,185.5c0,30.1-24.4,54.6-54.6,54.6s-54.6-24.4-54.6-54.6"/>
	<path class="st0" d="M252.4,185.5c0,30.1-24.4,54.6-54.6,54.6s-54.6-24.4-54.6-54.6"/>
	<path class="st0" d="M361.6,185.5c0,30.1-24.4,54.6-54.6,54.6c-30.1,0-54.6-24.4-54.6-54.6"/>
	<path class="st0" d="M470.8,185.5c0,30.1-24.4,54.6-54.6,54.6c-30.1,0-54.6-24.4-54.6-54.6"/>
	<polyline class="st0" points="60.6,235.2 60.6,438.9 441,438.9 441,235.2 	"/>
	<rect x="94.5" y="271.5" class="st0" width="193.1" height="84.3"/>
	<polyline class="st0" points="319.8,437.7 319.8,271.5 405.9,271.5 405.9,438.3 	"/>
	<line class="st0" x1="319.8" y1="378.6" x2="405.9" y2="378.6"/>
</g>
</svg>
