<?xml version="1.0" encoding="utf-8"?>
<!-- Generator: Adobe Illustrator 22.0.1, SVG Export Plug-In . SVG Version: 6.00 Build 0)  -->
<svg version="1.1" id="Layer_1" xmlns="http://www.w3.org/2000/svg" xmlns:xlink="http://www.w3.org/1999/xlink" x="0px" y="0px"
	 viewBox="0 0 500 500" style="enable-background:new 0 0 500 500;" xml:space="preserve">
<style type="text/css">
	.st0{fill:none;stroke:#5AA4C2;stroke-width:8;stroke-linecap:round;stroke-linejoin:round;stroke-miterlimit:10;}
</style>
<g>
	<g>
		<path class="st0" d="M238,448l29.7-0.4c11.8,0,20-7.5,21.5-21.5c0.2-1.8,0.2-12.9,0.1-15.6l-74,14.9"/>
		<path class="st0" d="M289.3,410.5c-0.2-5.9-0.8-18.8-0.6-27.4l-75.1,15.4"/>
		<path class="st0" d="M249.7,154c-51.5,0-93.2,41.7-93.2,93.2c0,27.9,12.3,53,31.8,70.1c18.4,13.9,23.2,36.9,24.4,54.4l78-16
			c2.8-11.7,5.2-26.5,19-37.1c4.9-3.8,9.1-8.5,13-13.4c0.9-1,1.6-1.9,2.1-2.8c11.4-15.5,18.1-34.6,18.1-55.2
			C342.9,195.8,301.2,154,249.7,154z"/>
		<path class="st0" d="M290.6,355.7l-78,16c0.5,7.6,1.1,19.6,1,26.8l75.1-15.4"/>
	</g>
	<line class="st0" x1="226.2" y1="140.9" x2="207.6" y2="42"/>
	<line class="st0" x1="272.2" y1="140.7" x2="289.1" y2="61.7"/>
	<line class="st0" x1="313.8" y1="159" x2="379.6" y2="67.1"/>
	<line class="st0" x1="343.6" y1="192" x2="395.8" y2="161.2"/>
	<line class="st0" x1="358.3" y1="236.5" x2="463" y2="223.5"/>
	<line class="st0" x1="185.2" y1="158.8" x2="150.2" y2="110.1"/>
	<line class="st0" x1="154.8" y1="192.1" x2="80.3" y2="148.7"/>
	<line class="st0" x1="140.9" y1="236.3" x2="96.4" y2="231.1"/>
	<path class="st0" d="M145.6,280.3"/>
	<line class="st0" x1="353.5" y1="281" x2="404.7" y2="297.4"/>
	<line class="st0" x1="330.7" y1="320.7" x2="376.1" y2="361.1"/>
</g>
</svg>
