<?xml version="1.0" encoding="utf-8"?>
<!-- Generator: Adobe Illustrator 22.0.1, SVG Export Plug-In . SVG Version: 6.00 Build 0)  -->
<svg version="1.1" id="Layer_1" xmlns="http://www.w3.org/2000/svg" xmlns:xlink="http://www.w3.org/1999/xlink" x="0px" y="0px"
	 viewBox="0 0 500 500" style="enable-background:new 0 0 500 500;" xml:space="preserve">
<style type="text/css">
	.st0{fill:none;stroke:#5AA4C2;stroke-width:8;stroke-linecap:round;stroke-linejoin:round;stroke-miterlimit:10;}
</style>
<g>
	<polygon class="st0" points="106.4,207.9 135.7,228.1 134.9,429.3 431.5,429.3 431.5,228.1 460,204.9 282.8,76.5 	"/>
	<polyline class="st0" points="155.4,210.7 284.3,117.8 414.2,210.1 	"/>
	<polyline class="st0" points="343.6,117.9 343.6,90.5 399.9,90.5 399.9,160.2 	"/>
	<polyline class="st0" points="297.1,427.1 297.1,268.7 392.4,268.7 392.4,428.6 	"/>
	<rect x="174.3" y="270.6" class="st0" width="81.8" height="81.8"/>
	<path class="st0" d="M134.1,310.5c0,0-25.4-20.8-48.7-2s-2.3,49.5,5.3,52.6c0,0-46.2-21.7-57.8,23.3c-6.8,26.3,16.5,45,44.3,45
		c10.5,0,57.1,0,57.1,0"/>
</g>
</svg>
