<?xml version="1.0" encoding="utf-8"?>
<!-- Generator: Adobe Illustrator 24.1.1, SVG Export Plug-In . SVG Version: 6.00 Build 0)  -->
<svg version="1.1" id="Layer_1" xmlns="http://www.w3.org/2000/svg" xmlns:xlink="http://www.w3.org/1999/xlink" x="0px" y="0px"
	 viewBox="0 0 576 191.7" style="enable-background:new 0 0 576 191.7;" xml:space="preserve">
<style type="text/css">
	.st0{fill:#FFFFFF;}
	.st1{fill:#D93729;}
	.st2{opacity:0.83;fill:#EB3A3D;enable-background:new    ;}
	.st3{fill:#EB3A3D;}
</style>
<g>
	<path class="st0" d="M126.2,128.7h-8.3c-1.9,0-3.5-1.6-3.5-3.5V56.3h5.1c3.7,0,6.7,3,6.7,6.7v6c2-3.7,4.1-6.5,6.4-8.6
		s4.7-3.6,7.3-4.6c2.6-1,5.3-1.6,7.9-1.6c2.4,0,4.5,0.4,6.3,1.1v12.5c-2.8-1.4-5.8-2.1-8.9-2.1c-4.4,0-8.7,2-12.9,6
		c-4.2,4-6.3,11-6.3,21.2L126.2,128.7L126.2,128.7z"/>
	<path class="st0" d="M207.8,118.4v10.1c-5.7,1.4-10.1,2.2-13.2,2.2c-4.4,0-8.4-0.9-11.9-2.7c-3.5-1.8-6.2-4.4-8.1-7.9
		c-1.8-3.5-2.8-9-2.8-16.5V66.3h-12.3v-10h12.3V39.2h5.2c3.6,0,6.6,2.9,6.6,6.6v10.5h20.6v10h-20.6v33.8c0,6.4,0.5,10.8,1.4,13.3
		s2.5,4.3,4.6,5.5s4.6,1.8,7.5,1.8C199.6,120.7,203.1,120,207.8,118.4z"/>
	<path class="st0" d="M214.5,106.1h12.8v0.6c0,5.6,1.9,9.4,5.8,11.6c3.8,2.2,8.9,3.3,15.3,3.3c5.6,0,10.3-1.7,14-5
		c3.8-3.3,5.7-7.7,5.7-13.2c0-4.4-1.6-8-4.9-10.8c-3.3-2.8-8.2-5.5-14.8-8.3l-5.1-2.1c-7-2.9-12.2-5.8-15.6-8.7s-6-6.1-7.7-9.6
		c-1.7-3.5-2.5-7.4-2.5-11.7c0-7.6,2.6-14,7.9-19.3s13.5-7.9,24.6-7.9c10.3,0,17.5,1.9,21.7,5.8s6.3,8.4,6.3,13.6v0.7h-12.8v-0.7
		c0-1.6-0.6-3.3-1.9-4.9c-1.3-1.6-3.2-2.8-5.8-3.5c-2.6-0.7-5.4-1.1-8.5-1.1c-6.3,0-10.9,1.6-13.9,4.8c-3,3.2-4.5,6.9-4.5,11
		c0,2.8,0.7,5.4,2.1,7.8c1.4,2.4,3.4,4.5,5.9,6.1c2.5,1.6,6.7,3.7,12.7,6.4l6,2.7c9.6,4.3,16.1,8.8,19.3,13.5
		c3.2,4.7,4.8,9.8,4.8,15.2c0,5.1-1.3,10-3.9,14.7s-6.3,8.3-10.9,10.8s-10.8,3.7-18.6,3.7c-7.3,0-13.4-0.9-18.4-2.7
		s-8.6-4.8-11.2-8.9c-2.6-4.1-3.9-8.6-3.9-13.5L214.5,106.1L214.5,106.1z"/>
	<path class="st0" d="M335.6,118.4v10.1c-5.7,1.4-10.1,2.2-13.2,2.2c-4.4,0-8.4-0.9-11.9-2.7c-3.5-1.8-6.2-4.4-8-7.9
		s-2.8-9-2.8-16.5V66.3h-12.3v-10h12.3V39.2h5.8c3.3,0,6,2.7,6,6v11.1h20.6v10h-20.6v33.8c0,6.4,0.5,10.8,1.4,13.3
		c1,2.5,2.5,4.3,4.6,5.5s4.6,1.8,7.5,1.8C327.4,120.7,330.9,120,335.6,118.4z"/>
	<path class="st0" d="M374.8,130.7c-9.2,0-17.1-3.2-23.6-9.7c-6.5-6.4-9.8-16-9.8-28.6c0-12.6,3.3-22.1,9.8-28.5s14.4-9.6,23.6-9.6
		s17.1,3.2,23.6,9.6c6.5,6.4,9.8,15.9,9.8,28.5c0,12.7-3.3,22.2-9.8,28.6C391.9,127.5,384,130.7,374.8,130.7z M374.8,120.7
		c6.4,0,11.5-2.6,15.3-7.8s5.8-12,5.8-20.5c0-8.4-1.9-15.3-5.8-20.4s-9-7.7-15.3-7.7s-11.5,2.6-15.3,7.7c-3.9,5.2-5.8,12-5.8,20.4
		c0,8.5,1.9,15.3,5.8,20.5S368.4,120.7,374.8,120.7z"/>
	<path class="st0" d="M462.5,110.1h11.9v0.7c0,3.2-1.2,6.5-3.6,9.8c-2.4,3.3-5.5,5.8-9.4,7.6c-3.9,1.8-8.5,2.6-14,2.6
		c-10.4,0-18.5-3.4-24.1-10.2c-5.6-6.8-8.5-16.2-8.5-28.1c0-11.9,2.8-21.3,8.5-28c5.6-6.8,13.7-10.1,24.1-10.1
		c5.4,0,10.1,0.9,14,2.6c3.9,1.7,7,4.1,9.4,7.2c2.4,3,3.6,6.4,3.6,10.2v0.6h-11.9v-0.6c0.1-2.6-1-4.9-3.4-6.9s-6.1-3-11.1-3
		c-5.9,0-10.9,2.2-14.9,6.7c-4,4.4-6,11.6-6,21.5c0,9.9,2,17.1,6,21.6c4,4.5,9,6.7,14.9,6.7c5,0,8.6-1,11-3c2.3-2,3.5-4.3,3.5-7
		V110.1z"/>
	<path class="st0" d="M493.9,128.7h-8.8c-1.9,0-3.5-1.6-3.5-3.5V24h4.9c4.1,0,7.4,3.3,7.4,7.4v59.4l31.4-34.5h13.6l-30.6,33.6
		l31.8,38.8h-14.8l-31.4-37.9L493.9,128.7L493.9,128.7z"/>
</g>
<path class="st0" d="M68.6,88.8H46.8c-5.4,0-9.7-4.3-9.7-9.7V55.8h25.2c3.5,0,6.3,2.8,6.3,6.3V88.8z"/>
<path class="st1" d="M107.2,128.6H81.4c-3.4,0-6.2-2.8-6.2-6.2V56h21.3c5.9,0,10.7,4.8,10.7,10.7L107.2,128.6L107.2,128.6z"/>
<path class="st2" d="M68.6,88.8H46.8c-5.4,0-9.7-4.3-9.7-9.7V55.8h25.2c3.5,0,6.3,2.8,6.3,6.3V88.8z"/>
<path class="st1" d="M68.6,128.4H46.8c-5.4,0-9.7-4.3-9.7-9.7V95.3h25.2c3.5,0,6.3,2.8,6.3,6.3V128.4z"/>
<g>
	<path class="st0" d="M406.4,150.4h3.8v10.9c0,2.8,0.3,4.6,0.8,5.6s1.4,1.7,2.5,2.1c1.1,0.5,2.4,0.7,3.8,0.7c1.3,0,2.5-0.3,3.6-0.7
		c1-0.5,1.8-1.3,2.3-2.3s0.8-3.3,0.8-6.7v-17.6h3.5V161c0,3.4-0.4,5.9-1.2,7.2c-0.8,1.4-1.9,2.5-3.4,3.3s-3.4,1.2-5.6,1.2
		c-2.1,0-4-0.3-5.8-1s-3-1.6-3.9-3c-0.9-1.4-1.3-3.7-1.3-6.9L406.4,150.4L406.4,150.4z"/>
	<path class="st0" d="M436.3,171.9h-3.5v-29.4h3.8l13.4,20.9l1.2,2.3l-0.1-2.3v-20.9h3.5v29.4h-3.8l-13.5-21l-1.2-2.4l0.1,2.4
		L436.3,171.9L436.3,171.9z"/>
	<path class="st0" d="M464.1,171.9h-3.8v-29.4h3.8V171.9z"/>
	<path class="st0" d="M477.4,171.9v-26.5h-10v-3h23.7v3h-9.9v26.5H477.4z"/>
	<path class="st0" d="M494.5,171.9v-29.4h16.6v3.2h-12.8v9.3h11.2v2.9h-11.2v10.7h13.8v3.2L494.5,171.9L494.5,171.9z"/>
	<path class="st0" d="M516.8,171.9v-29.4h8.1c4,0,6.8,0.5,8.7,1.6s3.3,2.7,4.3,4.9c1,2.2,1.5,4.9,1.5,8.1c0,3-0.5,5.6-1.4,7.7
		s-2.3,3.9-4.2,5.2s-4.7,1.9-8.4,1.9L516.8,171.9L516.8,171.9z M520.7,168.6h4.5c2.7,0,4.7-0.4,6.1-1.2s2.4-2,3.1-3.7
		s1.1-3.8,1.1-6.4c0-2.6-0.3-4.8-1-6.6c-0.7-1.8-1.7-3.2-3-4.1s-3.5-1.3-6.4-1.3h-4.4L520.7,168.6L520.7,168.6z"/>
</g>
<path class="st0" d="M398.6,157.7v-0.9l-360.4-0.3c-1.1,0-1.9,0.9-1.9,1.9v1.1l360.2,0.3C397.7,159.8,398.6,158.9,398.6,157.7z"/>
<rect x="406.4" y="146.4" class="st3" width="3.8" height="3.4"/>
<path class="st2" d="M410.2,145.9h-3.8v-3.4h2.3c0.9,0,1.5,0.7,1.5,1.5L410.2,145.9L410.2,145.9z"/>
</svg>
