<?xml version="1.0" encoding="utf-8"?>
<!-- Generator: Adobe Illustrator 22.0.1, SVG Export Plug-In . SVG Version: 6.00 Build 0)  -->
<svg version="1.1" id="Layer_1" xmlns="http://www.w3.org/2000/svg" xmlns:xlink="http://www.w3.org/1999/xlink" x="0px" y="0px"
	 viewBox="0 0 500 500" style="enable-background:new 0 0 500 500;" xml:space="preserve">
<style type="text/css">
	.st0{fill:none;stroke:#5AA4C2;stroke-width:8;stroke-linecap:round;stroke-linejoin:round;stroke-miterlimit:10;}
</style>
<g>
	<path class="st0" d="M226.8,163.9c63.9-13.3,127.6,24.6,146.1,86.6c19.7,66.1-17.9,135.7-84,155.4c-66.1,19.7-135.7-17.9-155.4-84
		c-13.6-45.4,1-93.4,32.2-124.8"/>
	<path class="st0" d="M236.4,132.9c71.9-8,141.7,35.8,164.1,107.4c25.4,81.3-20,167.8-101.3,193.1s-167.8-20-193.1-101.3
		c-16.2-51.9-3.6-105.8,28.8-144.7"/>
	<polygon class="st0" points="212.5,207.3 162.1,194 81.5,172.6 85.2,122.3 212.6,54 253.2,79.5 	"/>
	<line class="st0" x1="83.8" y1="171" x2="250.7" y2="80.3"/>
	<polyline class="st0" points="87.5,123.8 133.3,143.6 210.2,202.9 202.9,107.2 211.8,56.1 	"/>
	<polyline class="st0" points="132.6,141.5 148.1,89.3 202.2,105.1 	"/>
</g>
</svg>
