<?xml version="1.0" encoding="utf-8"?>
<!-- Generator: Adobe Illustrator 22.0.1, SVG Export Plug-In . SVG Version: 6.00 Build 0)  -->
<svg version="1.1" id="Layer_1" xmlns="http://www.w3.org/2000/svg" xmlns:xlink="http://www.w3.org/1999/xlink" x="0px" y="0px"
	 viewBox="0 0 500 500" style="enable-background:new 0 0 500 500;" xml:space="preserve">
<style type="text/css">
	.st0{fill:none;stroke:#5AA4C2;stroke-width:8;stroke-linecap:round;stroke-linejoin:round;stroke-miterlimit:10;}
</style>
<g>
	<g>
		<path class="st0" d="M93.7,294.5C93.7,375.4,162.4,441,247,441s153.3-65.6,153.3-146.5c0-21.3-4.8-41.5-13.3-59.8H107.1
			C98.5,253,93.7,273.2,93.7,294.5z"/>
	</g>
	<circle class="st0" cx="326.2" cy="354.5" r="25.7"/>
	<circle class="st0" cx="287.7" cy="390.8" r="13"/>
	<path class="st0" d="M285,234c0,0,26.9-97.2,31.6-111.4s10.3-21.3,21.3-19c11.1,2.4,80.9,37.1,80.9,37.1l12.1-17.4
		c0,0-66.9-30.6-84.3-37.9c-17.4-7.4-36.4-7.4-46.9,25.3s-36.4,122.8-36.4,122.8"/>
	<path class="st0" d="M61.6,207.6L246.5,117c0,0-63.5-60.1-132.2-28.4S61.6,207.6,61.6,207.6z"/>
	<line class="st0" x1="152.2" y1="163.6" x2="193.3" y2="235.1"/>
	<path class="st0" d="M99.5,68l12.4,22.9c0,0-22.4,51.4,4,90.9"/>
	<path class="st0" d="M111.7,90.7c0,0,60.1,5.8,77.4,54.3"/>
</g>
</svg>
